<?xml version="1.0" encoding="UTF-8"?>
<svg id="Layer_2" data-name="Layer 2" xmlns="http://www.w3.org/2000/svg" xmlns:xlink="http://www.w3.org/1999/xlink" viewBox="0 0 227.72 194.77">
  <defs>
    <style>
      .cls-1 {
        stroke: url(#linear-gradient-2);
      }

      .cls-1, .cls-2, .cls-3, .cls-4, .cls-5, .cls-6, .cls-7, .cls-8, .cls-9, .cls-10, .cls-11, .cls-12, .cls-13, .cls-14, .cls-15, .cls-16, .cls-17, .cls-18, .cls-19, .cls-20 {
        stroke-miterlimit: 10;
      }

      .cls-1, .cls-2, .cls-4, .cls-21, .cls-10, .cls-11, .cls-16, .cls-17, .cls-19 {
        fill: none;
      }

      .cls-2 {
        stroke: url(#linear-gradient-3);
      }

      .cls-3 {
        fill: url(#radial-gradient-7);
      }

      .cls-3, .cls-5, .cls-6, .cls-8, .cls-12, .cls-20 {
        stroke: #231f20;
      }

      .cls-4 {
        stroke: url(#linear-gradient-4);
      }

      .cls-5 {
        fill: url(#radial-gradient-11);
      }

      .cls-6, .cls-9, .cls-13, .cls-15, .cls-18 {
        fill: #fff;
      }

      .cls-7 {
        stroke: #000;
      }

      .cls-8 {
        fill: url(#radial-gradient-13);
      }

      .cls-9 {
        stroke: url(#radial-gradient-4);
      }

      .cls-9, .cls-18 {
        stroke-width: 4px;
      }

      .cls-22 {
        fill: url(#radial-gradient-8);
      }

      .cls-22, .cls-21, .cls-23 {
        stroke-width: 0px;
      }

      .cls-10 {
        stroke: url(#radial-gradient-5);
      }

      .cls-10, .cls-16, .cls-17 {
        stroke-width: 6px;
      }

      .cls-11 {
        stroke: url(#linear-gradient-5);
      }

      .cls-12 {
        fill: url(#radial-gradient-10);
      }

      .cls-13 {
        stroke: url(#radial-gradient-6);
        stroke-width: 3px;
      }

      .cls-14 {
        fill: url(#linear-gradient);
        stroke: #f2e205;
      }

      .cls-15 {
        stroke: #fff;
      }

      .cls-16 {
        stroke: url(#radial-gradient-2);
      }

      .cls-23 {
        fill: url(#radial-gradient-9);
      }

      .cls-17 {
        stroke: url(#radial-gradient);
      }

      .cls-18 {
        stroke: url(#radial-gradient-3);
      }

      .cls-19 {
        stroke: #0f0f0f;
        stroke-width: 2px;
      }

      .cls-20 {
        fill: url(#radial-gradient-12);
      }
    </style>
    <radialGradient id="radial-gradient" cx="190.67" cy="58.65" fx="190.67" fy="58.65" r="52.37" gradientTransform="translate(-6.84 31.06) scale(.47 .59)" gradientUnits="userSpaceOnUse">
      <stop offset=".18" stop-color="#231f20"/>
      <stop offset=".29" stop-color="#2f2d21"/>
      <stop offset=".5" stop-color="#73711b"/>
      <stop offset=".71" stop-color="#b2ae17"/>
      <stop offset=".86" stop-color="#d9d514"/>
      <stop offset=".94" stop-color="#e8e413"/>
    </radialGradient>
    <radialGradient id="radial-gradient-2" cx="199.44" cy="173.29" fx="199.44" fy="173.29" r="58.88" xlink:href="#radial-gradient"/>
    <radialGradient id="radial-gradient-3" cx="143.94" cy="127.2" fx="143.94" fy="127.2" r="81.65" gradientTransform="translate(-2.86 31.06) scale(.42 .59)" gradientUnits="userSpaceOnUse">
      <stop offset=".18" stop-color="#231f20"/>
      <stop offset=".29" stop-color="#2f2d21"/>
      <stop offset=".45" stop-color="#5c5e24"/>
      <stop offset=".68" stop-color="#959d29"/>
      <stop offset=".85" stop-color="#b8c42b"/>
      <stop offset=".94" stop-color="#c6d32d"/>
    </radialGradient>
    <radialGradient id="radial-gradient-4" cx="150.52" cy="96.89" fx="150.52" fy="96.89" r="46.42" gradientTransform="translate(-6.84 38.01) scale(.47 .51)" xlink:href="#radial-gradient-3"/>
    <radialGradient id="radial-gradient-5" cx="287.68" cy="115.55" fx="287.68" fy="115.55" r="68.43" xlink:href="#radial-gradient"/>
    <radialGradient id="radial-gradient-6" cx="172.15" cy="143.24" fx="172.15" fy="143.24" r="38.29" gradientTransform="translate(-9.44 43.21) scale(.43 .49)" xlink:href="#radial-gradient-3"/>
    <linearGradient id="linear-gradient" x1="152.89" y1="126.35" x2="158.82" y2="126.35" gradientUnits="userSpaceOnUse">
      <stop offset=".21" stop-color="#a8a135"/>
      <stop offset=".29" stop-color="#979032"/>
      <stop offset=".62" stop-color="#585328"/>
      <stop offset=".86" stop-color="#312d22"/>
      <stop offset=".98" stop-color="#231f20"/>
    </linearGradient>
    <linearGradient id="linear-gradient-2" x1="168.06" y1="108.74" x2="211.89" y2="108.74" xlink:href="#linear-gradient"/>
    <linearGradient id="linear-gradient-3" x1="165.92" y1="122.85" x2="197.69" y2="122.85" gradientUnits="userSpaceOnUse">
      <stop offset=".53" stop-color="#a8a135"/>
      <stop offset=".58" stop-color="#979032"/>
      <stop offset=".77" stop-color="#585328"/>
      <stop offset=".91" stop-color="#312d22"/>
      <stop offset=".98" stop-color="#231f20"/>
    </linearGradient>
    <linearGradient id="linear-gradient-4" x1="169.87" y1="127.35" x2="194.69" y2="127.35" xlink:href="#linear-gradient"/>
    <linearGradient id="linear-gradient-5" x1="167.45" y1="133.43" x2="181.69" y2="133.43" xlink:href="#linear-gradient"/>
    <radialGradient id="radial-gradient-7" cx="399" cy="120.94" fx="399" fy="120.94" r="29.33" gradientTransform="translate(-6.84 31.06) scale(.47 .59)" gradientUnits="userSpaceOnUse">
      <stop offset=".59" stop-color="#231f20"/>
      <stop offset=".7" stop-color="#5c5e24"/>
      <stop offset=".81" stop-color="#959d29"/>
      <stop offset=".9" stop-color="#b8c42b"/>
      <stop offset=".94" stop-color="#c6d32d"/>
    </radialGradient>
    <radialGradient id="radial-gradient-8" cx="368.19" cy="141.69" fx="368.19" fy="141.69" r="4.97" gradientTransform="translate(-6.84 31.06) scale(.47 .59)" gradientUnits="userSpaceOnUse">
      <stop offset="0" stop-color="#231f20"/>
      <stop offset="0" stop-color="#b7c32c"/>
      <stop offset=".5" stop-color="#c6d32d"/>
    </radialGradient>
    <radialGradient id="radial-gradient-9" cx="377.08" cy="130.3" fx="386.52" fy="130.3" r="9.69" gradientTransform="translate(-6.84 31.06) scale(.47 .59)" gradientUnits="userSpaceOnUse">
      <stop offset="0" stop-color="#fff"/>
      <stop offset=".08" stop-color="#eaeaea"/>
      <stop offset=".42" stop-color="#959494"/>
      <stop offset=".69" stop-color="#575455"/>
      <stop offset=".9" stop-color="#312d2e"/>
      <stop offset="1" stop-color="#231f20"/>
    </radialGradient>
    <radialGradient id="radial-gradient-10" cx="392.09" cy="63.29" fx="392.09" fy="63.29" r="21.53" gradientTransform="translate(-6.84 31.06) scale(.47 .59)" xlink:href="#radial-gradient-3"/>
    <radialGradient id="radial-gradient-11" cx="432.93" cy="61.4" fx="432.93" fy="61.4" r="22.96" gradientTransform="translate(-6.84 31.06) scale(.47 .59)" gradientUnits="userSpaceOnUse">
      <stop offset=".26" stop-color="#c6d32d"/>
      <stop offset=".31" stop-color="#b8c42b"/>
      <stop offset=".42" stop-color="#959d29"/>
      <stop offset=".56" stop-color="#5c5e24"/>
      <stop offset=".7" stop-color="#231f20"/>
    </radialGradient>
    <radialGradient id="radial-gradient-12" cx="354.31" cy="69.45" fx="354.31" fy="69.45" r="15.23" gradientTransform="translate(-6.84 31.06) scale(.47 .59)" gradientUnits="userSpaceOnUse">
      <stop offset=".54" stop-color="#c6d32d"/>
      <stop offset=".59" stop-color="#b8c42b"/>
      <stop offset=".71" stop-color="#959d29"/>
      <stop offset=".86" stop-color="#5c5e24"/>
      <stop offset="1" stop-color="#231f20"/>
    </radialGradient>
    <radialGradient id="radial-gradient-13" cx="352.7" cy="73.16" fx="352.7" fy="73.16" r="16.6" xlink:href="#radial-gradient-7"/>
  </defs>
  <g id="Icono">
    <path class="cls-15" d="m172.78,194.27l-141.22-3.12c-17.05.43-31.06-17.16-31.06-39.01V38.09C.5,17.33,13.64.5,29.85.5h136.39c35.38,1.26,59.91-6.58,60.99,48.57l-.21,107.88c-2.17,40.32-49.84,37.02-54.23,37.31Z"/>
    <path class="cls-17" d="m113.86,74.1c-3.71-8.02-7.57-11.93-10.06-14.28-6.82-6.46-11.86-6.91-11.86-6.91l-34.96-.76-.6,24.08-4.91.13v3.13l21.25-.51-.06-2.77-7.3.15h-13.89"/>
    <path class="cls-16" d="m119.89,111.19c-6.23,43.74-33.1,43.74-33.1,43.74h-30.05l.24-27.85-3.47.15v-3.48h34.84l.09,3.33h-30.31"/>
    <polygon class="cls-18" points="38.46 97.39 105.1 97.39 105.1 102.53 40.52 102.53 36.62 110.55 24 110.55 24 115.55 10.53 115.55 10.53 98.75 23.86 98.29 23.86 105.71 33.22 105.86 38.46 97.39"/>
    <polygon class="cls-9" points="46.17 90.17 46.11 93.69 34.65 93.82 34.65 81.17 46.17 81.17 46.17 85.66 92.84 85.66 92.84 89.91 46.17 90.17"/>
    <polyline class="cls-10" points="106.12 62.03 106.12 52.15 118.81 52.15 119.55 95.74 134.3 95.59 133.97 52.15 150.01 52.15 150.01 146.14 134.45 146.9 134.27 111.41 118.16 111.16"/>
    <polygon class="cls-13" points="50.69 116.22 50.65 119.61 42.13 119.73 42.13 107.55 50.69 107.55 50.69 111.87 85.35 111.87 85.35 115.97 50.69 116.22"/>
    <path class="cls-19" d="m212.04,135.1c2.57-4.72,4.81-21.64,3.58-27.93,0-1.66,2.06,7.46,2.16,10.29.77,4.33-.3,11-2.28,15.71.93-1.58,2.12-1.58,3.65-9.12,2.02-9.29,0-34.63-3.95-42.3-7.41-14.93-10.61-13.15-14.91-21.04-18.77-19.28-13.93-18.11-20.89,10.06-5.75,1.02-21.64-6.32-27.54-7.72-.24.15-1.14-.99,0,0,1.39,1.21,6.87,9.57,6.35,12.71-.48,2.89,2.57,9.38,2.63,10.37s-5.03,8.93-5.63,13.39.54,11.86-.24,15.62c-1.19,5.91-1.92,7.45-2.64,10.68l4.49,4.8c.54,3.72,3.73,6.05,6.83,7.49,1.56.68,6.35.98,8.62,0,2.27-.98,11.31-1.82,14.25-4.62s7.5.98,7.28,4.01c-.22,3.03-1.06,7.19-2.79,9.38-20.37,21.4-50.54,17.32-69.3-6.15,14.83,28.52,74.95,39.57,88.04-22.58,0,0-.02,6.69-.18,7.45-9.1,43.35-46.07,40.34-45.24,40.41,40.65,3.55,48.84-33.87,48.84-33.87"/>
    <ellipse class="cls-6" cx="216.1" cy="133.43" rx="1.39" ry="1.76"/>
    <ellipse class="cls-6" cx="118.56" cy="134.19" rx="2.16" ry="2.72"/>
    <polygon class="cls-14" points="157.15 129.83 152.89 125.67 153.55 123.06 158.82 122.87 158.82 126.05 157.15 129.83"/>
    <path class="cls-1" d="m168.34,124.01s9.06-6.17,11.31-7.42c3.48-1.92,12.69-4.54,12.69-4.54,12.01-3.81,14.48-9.91,14.48-9.91l4.62-8.85"/>
    <path class="cls-2" d="m197.63,117.95c-11.19,1.36-24.55,6.41-31.49,9.84"/>
    <path class="cls-4" d="m170,128.36c11.88-3.14,24.49-1.83,24.19-1.14"/>
    <line class="cls-11" x1="167.59" y1="131.44" x2="181.56" y2="135.43"/>
    <ellipse class="cls-6" cx="199.31" cy="117.42" rx="1.5" ry="1.89"/>
    <ellipse class="cls-6" cx="197.25" cy="127.67" rx="2.06" ry="2.61"/>
    <ellipse class="cls-6" cx="182.47" cy="135.97" rx="1.17" ry="1.48"/>
    <ellipse class="cls-6" cx="199.31" cy="91.77" rx="1.26" ry="1.59"/>
    <path class="cls-3" d="m163.24,112.15c.6-8.91,6.79-9.91,6.79-9.91,0,0,11.54-.56,12.21-.68,8.26-1.54,16.9-8.7,15.92-8.17-8.74,4.72-13.49,5.99-14.95,6.58-.09.04-.19.06-.29.06-1.5.03-14.01.29-15.28.88-8.38,3.88-4.41,11.24-4.41,11.24Z"/>
    <path class="cls-22" d="m162.72,116.46s.91-4.32,6.02-2.27c1.45.58-6.02,2.27-6.02,2.27Z"/>
    <path class="cls-23" d="m174.04,108.79c-.28,3.11-1.76,5.54-3.92,5.68-2.11.14-2.72-2.54-3.92-5.68-1.5-3.93,1.66-6.55,3.83-6.55s4.74-1.45,4.01,6.55Z"/>
    <path class="cls-7" d="m166.32,104.71l3.52,5.37,1.31-6.81c.03-.74-.57-1.25-1.11-.96l-2.74,1.1-1,1.29Z"/>
    <polygon class="cls-12" points="184.06 52.87 183.33 72.33 170 84.29 179.26 72.64 184.06 52.87"/>
    <path class="cls-5" d="m189.91,49.92l7.96,8.01s1.29,2.73,2,4.97c.72,2.27,5.03,13.02.6,17.56l-4.43,4.54s.72-1.21,2.39-6.36-3.78-22.55-3.78-22.55c0,0,.68,1.82.61,6.21-.06,4.39-.61,7.87-.61,7.87,0,0,.42-1.25,0-5.15s-4.75-15.1-4.75-15.1Z"/>
    <path class="cls-21" d="m160.74,87.62c7.74-6.36,11.49-11.65,10.57-10.59s-10.57,10.59-10.57,10.59Z"/>
    <path class="cls-20" d="m165.82,80.36c.87-4.69,0-7.11,0-7.11-1.64-2.12-11.95-9.92-11.95-9.92l-1.46-.42s2.61,2.32,3.54,3.53,5.94,8.19,6.77,9.7c.93,1.69,1.7,5.43,1.7,5.43l1.4-1.21Z"/>
    <path class="cls-8" d="m161.39,85.98c.75-.93,1.87-3.68,3.02-4.41,2.4-1.53-11.1-19.38-12-18.67,0,0,7.33,10.04,6.41,13.86-.59,2.43,2.57,9.22,2.57,9.22Z"/>
    <ellipse class="cls-6" cx="194.23" cy="87.19" rx=".96" ry="1.21"/>
    <ellipse class="cls-6" cx="193.82" cy="73.33" rx=".87" ry="1.1"/>
    <ellipse class="cls-6" cx="169.21" cy="85.98" rx="1.62" ry="2.05"/>
    <ellipse class="cls-6" cx="212.44" cy="91.77" rx="2.06" ry="2.61"/>
  </g>
</svg>