<?xml version="1.0" encoding="UTF-8"?>
<svg id="Layer_2" data-name="Layer 2" xmlns="http://www.w3.org/2000/svg" xmlns:xlink="http://www.w3.org/1999/xlink" viewBox="0 0 457.28 212.94">
  <defs>
    <style>
      .cls-1 {
        stroke: url(#linear-gradient-2);
      }

      .cls-1, .cls-2, .cls-3, .cls-4, .cls-5, .cls-6, .cls-7, .cls-8, .cls-9, .cls-10, .cls-11, .cls-12, .cls-13, .cls-14, .cls-15, .cls-16, .cls-17, .cls-18, .cls-19 {
        stroke-miterlimit: 10;
      }

      .cls-1, .cls-2, .cls-3, .cls-4, .cls-6, .cls-20, .cls-11, .cls-17, .cls-18 {
        fill: none;
      }

      .cls-2 {
        stroke: url(#linear-gradient-3);
      }

      .cls-3 {
        stroke: url(#radial-gradient-9);
      }

      .cls-3, .cls-6, .cls-17 {
        stroke-width: 6px;
      }

      .cls-4 {
        stroke: url(#linear-gradient-4);
      }

      .cls-5 {
        fill: url(#radial-gradient-11);
      }

      .cls-5, .cls-7, .cls-9, .cls-10, .cls-13, .cls-14 {
        stroke: #231f20;
      }

      .cls-6 {
        stroke: url(#radial-gradient-7);
      }

      .cls-7, .cls-21, .cls-12, .cls-16, .cls-19 {
        fill: #fff;
      }

      .cls-8 {
        stroke: #000;
      }

      .cls-22 {
        fill: url(#radial-gradient-13);
      }

      .cls-22, .cls-23, .cls-20, .cls-21 {
        stroke-width: 0px;
      }

      .cls-23 {
        fill: url(#radial-gradient-12);
      }

      .cls-9 {
        fill: url(#radial-gradient-4);
      }

      .cls-10 {
        fill: url(#radial-gradient-5);
      }

      .cls-11 {
        stroke: url(#linear-gradient-5);
      }

      .cls-12 {
        stroke: url(#radial-gradient-10);
        stroke-width: 3px;
      }

      .cls-13 {
        fill: url(#radial-gradient-3);
      }

      .cls-14 {
        fill: url(#radial-gradient-6);
      }

      .cls-15 {
        fill: url(#linear-gradient);
        stroke: #f2e205;
      }

      .cls-16 {
        stroke: url(#radial-gradient-2);
      }

      .cls-16, .cls-19 {
        stroke-width: 4px;
      }

      .cls-17 {
        stroke: url(#radial-gradient);
      }

      .cls-18 {
        stroke: #0f0f0f;
        stroke-width: 2px;
      }

      .cls-19 {
        stroke: url(#radial-gradient-8);
      }
    </style>
    <radialGradient id="radial-gradient" cx="159.46" cy="33.57" fx="159.46" fy="33.57" r="52.37" gradientUnits="userSpaceOnUse">
      <stop offset=".18" stop-color="#231f20"/>
      <stop offset=".29" stop-color="#2f2d21"/>
      <stop offset=".5" stop-color="#73711b"/>
      <stop offset=".71" stop-color="#b2ae17"/>
      <stop offset=".86" stop-color="#d9d514"/>
      <stop offset=".94" stop-color="#e8e413"/>
    </radialGradient>
    <radialGradient id="radial-gradient-2" cx="119.3" cy="70.19" fx="119.3" fy="70.19" r="46.42" gradientTransform="translate(0 9.64) scale(1 .86)" gradientUnits="userSpaceOnUse">
      <stop offset=".18" stop-color="#231f20"/>
      <stop offset=".29" stop-color="#2f2d21"/>
      <stop offset=".45" stop-color="#5c5e24"/>
      <stop offset=".68" stop-color="#959d29"/>
      <stop offset=".85" stop-color="#b8c42b"/>
      <stop offset=".94" stop-color="#c6d32d"/>
    </radialGradient>
    <radialGradient id="radial-gradient-3" cx="360.87" cy="38.21" fx="360.87" fy="38.21" r="21.53" gradientTransform="matrix(1,0,0,1,0,0)" xlink:href="#radial-gradient-2"/>
    <radialGradient id="radial-gradient-4" cx="401.72" cy="36.32" fx="401.72" fy="36.32" r="22.96" gradientUnits="userSpaceOnUse">
      <stop offset=".26" stop-color="#c6d32d"/>
      <stop offset=".31" stop-color="#b8c42b"/>
      <stop offset=".42" stop-color="#959d29"/>
      <stop offset=".56" stop-color="#5c5e24"/>
      <stop offset=".7" stop-color="#231f20"/>
    </radialGradient>
    <radialGradient id="radial-gradient-5" cx="323.09" cy="44.38" fx="323.09" fy="44.38" r="15.23" gradientUnits="userSpaceOnUse">
      <stop offset=".54" stop-color="#c6d32d"/>
      <stop offset=".59" stop-color="#b8c42b"/>
      <stop offset=".71" stop-color="#959d29"/>
      <stop offset=".86" stop-color="#5c5e24"/>
      <stop offset="1" stop-color="#231f20"/>
    </radialGradient>
    <radialGradient id="radial-gradient-6" cx="321.49" cy="48.08" fx="321.49" fy="48.08" r="16.6" gradientUnits="userSpaceOnUse">
      <stop offset=".59" stop-color="#231f20"/>
      <stop offset=".7" stop-color="#5c5e24"/>
      <stop offset=".81" stop-color="#959d29"/>
      <stop offset=".9" stop-color="#b8c42b"/>
      <stop offset=".94" stop-color="#c6d32d"/>
    </radialGradient>
    <radialGradient id="radial-gradient-7" cx="168.23" cy="148.21" fx="168.23" fy="148.21" r="58.88" xlink:href="#radial-gradient"/>
    <radialGradient id="radial-gradient-8" cx="94.14" cy="102.13" fx="94.14" fy="102.13" r="81.65" gradientTransform="translate(22.03) scale(.9 1)" xlink:href="#radial-gradient-2"/>
    <radialGradient id="radial-gradient-9" cx="256.46" cy="90.48" fx="256.46" fy="90.48" r="68.43" xlink:href="#radial-gradient"/>
    <radialGradient id="radial-gradient-10" cx="123.9" cy="116.09" fx="123.9" fy="116.09" r="38.29" gradientTransform="translate(6.98 17.93) scale(.91 .83)" xlink:href="#radial-gradient-2"/>
    <linearGradient id="linear-gradient" x1="309.4" y1="135.67" x2="322.05" y2="135.67" gradientUnits="userSpaceOnUse">
      <stop offset=".21" stop-color="#a8a135"/>
      <stop offset=".29" stop-color="#979032"/>
      <stop offset=".62" stop-color="#585328"/>
      <stop offset=".86" stop-color="#312d22"/>
      <stop offset=".98" stop-color="#231f20"/>
    </linearGradient>
    <linearGradient id="linear-gradient-2" x1="342.11" y1="105.89" x2="434.68" y2="105.89" xlink:href="#linear-gradient"/>
    <linearGradient id="linear-gradient-3" x1="337.48" y1="129.79" x2="404.85" y2="129.79" gradientUnits="userSpaceOnUse">
      <stop offset=".53" stop-color="#a8a135"/>
      <stop offset=".58" stop-color="#979032"/>
      <stop offset=".77" stop-color="#585328"/>
      <stop offset=".91" stop-color="#312d22"/>
      <stop offset=".98" stop-color="#231f20"/>
    </linearGradient>
    <linearGradient id="linear-gradient-4" x1="345.77" y1="137.36" x2="397.96" y2="137.36" xlink:href="#linear-gradient"/>
    <linearGradient id="linear-gradient-5" x1="340.64" y1="147.62" x2="370.63" y2="147.62" xlink:href="#linear-gradient"/>
    <radialGradient id="radial-gradient-11" cx="367.78" cy="95.87" fx="367.78" fy="95.87" r="29.33" xlink:href="#radial-gradient-6"/>
    <radialGradient id="radial-gradient-12" cx="336.97" cy="116.61" fx="336.97" fy="116.61" r="4.97" gradientUnits="userSpaceOnUse">
      <stop offset="0" stop-color="#231f20"/>
      <stop offset="0" stop-color="#b7c32c"/>
      <stop offset=".5" stop-color="#c6d32d"/>
    </radialGradient>
    <radialGradient id="radial-gradient-13" cx="345.86" cy="105.23" fx="355.31" fy="105.23" r="9.69" gradientUnits="userSpaceOnUse">
      <stop offset="0" stop-color="#fff"/>
      <stop offset=".08" stop-color="#eaeaea"/>
      <stop offset=".42" stop-color="#959494"/>
      <stop offset=".69" stop-color="#575455"/>
      <stop offset=".9" stop-color="#312d2e"/>
      <stop offset="1" stop-color="#231f20"/>
    </radialGradient>
  </defs>
  <g id="logo">
    <rect class="cls-21" width="457.28" height="212.94"/>
    <g>
      <path class="cls-17" d="m226.17,47.53c-7.91-13.53-16.15-20.12-21.45-24.09-14.55-10.89-25.29-11.66-25.29-11.66l-74.54-1.28-1.27,40.62-10.47.23v5.28l45.32-.86-.13-4.67-15.57.26h-29.62"/>
      <polygon class="cls-16" points="81.84 74.63 81.7 80.57 57.25 80.79 57.25 59.45 81.84 59.45 81.84 67.02 181.35 67.02 181.35 74.19 81.84 74.63"/>
      <circle class="cls-7" cx="444.19" cy="147.62" r="2.97"/>
      <circle class="cls-7" cx="408.38" cy="77.33" r="2.68"/>
      <polygon class="cls-13" points="375.86 11.71 374.32 44.55 345.87 64.72 365.64 45.06 375.86 11.71"/>
      <path class="cls-9" d="m388.35,6.74l16.98,13.51s2.76,4.6,4.27,8.38c1.53,3.83,10.72,21.96,1.28,29.62l-9.45,7.66s1.53-2.04,5.11-10.72-8.06-38.04-8.06-38.04c0,0,1.44,3.06,1.31,10.47-.14,7.4-1.31,13.28-1.31,13.28,0,0,.89-2.11,0-8.68-.94-6.89-10.13-25.47-10.13-25.47Z"/>
      <path class="cls-20" d="m326.14,70.33c16.51-10.72,24.5-19.66,22.55-17.87s-22.55,17.87-22.55,17.87Z"/>
      <path class="cls-10" d="m336.97,58.08c1.86-7.91,0-12,0-12-3.5-3.57-25.48-16.74-25.48-16.74l-3.1-.71s5.57,3.92,7.54,5.96,12.66,13.81,14.43,16.37c1.98,2.86,3.62,9.17,3.62,9.17l2.99-2.04Z"/>
      <path class="cls-14" d="m327.53,67.57c1.59-1.57,3.98-6.2,6.44-7.45,5.13-2.59-23.67-32.69-25.59-31.49,0,0,15.63,16.94,13.67,23.38-1.25,4.09,5.48,15.55,5.48,15.55Z"/>
      <circle class="cls-7" cx="397.55" cy="69.61" r="2.04"/>
      <circle class="cls-7" cx="396.68" cy="46.23" r="1.85"/>
      <circle class="cls-7" cx="344.21" cy="67.57" r="3.46"/>
      <circle class="cls-7" cx="436.38" cy="77.33" r="4.4"/>
      <g>
        <path class="cls-6" d="m239.03,110.09c-13.28,73.79-70.58,73.78-70.58,73.78h-64.09l.51-46.98-7.4.26v-5.87h74.3l.2,5.62h-64.63"/>
        <polygon class="cls-19" points="65.39 86.81 207.49 86.81 207.49 95.49 69.77 95.49 61.46 109.02 34.55 109.02 34.55 117.45 5.83 117.45 5.83 89.11 34.25 88.34 34.25 100.85 54.2 101.11 65.39 86.81"/>
        <polyline class="cls-3" points="209.66 27.16 209.66 10.51 236.72 10.51 238.3 84.03 269.76 83.77 269.05 10.51 303.26 10.51 303.26 169.06 270.07 170.34 269.68 110.46 235.33 110.04"/>
        <polygon class="cls-12" points="91.47 118.57 91.38 124.29 73.22 124.51 73.22 103.96 91.47 103.96 91.47 111.25 165.38 111.25 165.38 118.15 91.47 118.57"/>
        <path class="cls-18" d="m435.53,150.42c5.49-7.96,10.26-36.51,7.64-47.11,0-2.81,4.4,12.58,4.6,17.36,1.65,7.31-.65,18.55-4.85,26.5,1.98-2.67,4.53-2.67,7.79-15.39,4.32-15.66-.01-58.41-8.43-71.36-15.81-25.19-22.62-22.19-31.79-35.49-40.03-32.52-29.7-30.55-44.55,16.98-12.26,1.72-46.15-10.66-58.72-13.02-.51.26-2.43-1.67,0,0,2.96,2.04,14.66,16.14,13.53,21.45-1.03,4.88,5.49,15.83,5.62,17.49s-10.73,15.06-12,22.6,1.15,20.01-.51,26.34c-2.53,9.97-4.1,12.57-5.62,18.02l9.58,8.11c1.16,6.27,7.96,10.2,14.55,12.64,3.32,1.15,13.53,1.66,18.38,0s24.13-3.06,30.38-7.79,16,1.66,15.53,6.77-2.26,12.13-5.96,15.83c-43.45,36.1-107.76,29.22-147.77-10.38,31.62,48.12,159.83,66.76,187.74-38.1,0,0-.05,11.28-.39,12.56-19.4,73.13-98.25,68.05-96.47,68.17,86.68,5.99,104.15-57.14,104.15-57.14"/>
        <circle class="cls-7" cx="236.2" cy="148.89" r="4.6"/>
        <polygon class="cls-15" points="318.48 141.55 309.4 134.53 310.81 130.12 322.05 129.8 322.05 135.16 318.48 141.55"/>
        <path class="cls-1" d="m342.35,131.72s19.31-10.4,24.13-12.51c7.42-3.24,27.06-7.66,27.06-7.66,25.6-6.43,30.88-16.72,30.88-16.72l9.84-14.94"/>
        <path class="cls-2" d="m404.81,121.5c-23.87,2.3-52.35,10.81-67.15,16.6"/>
        <path class="cls-4" d="m345.87,139.05c25.33-5.29,52.21-3.09,51.57-1.91"/>
        <line class="cls-11" x1="340.75" y1="144.25" x2="370.52" y2="150.98"/>
        <circle class="cls-7" cx="408.38" cy="120.61" r="3.19"/>
        <circle class="cls-7" cx="403.98" cy="137.9" r="4.4"/>
        <circle class="cls-7" cx="372.47" cy="151.9" r="2.49"/>
        <path class="cls-5" d="m331.46,111.72c1.28-15.03,14.49-16.72,14.49-16.72,0,0,24.6-.94,26.04-1.15,17.62-2.6,36.04-14.68,33.96-13.79-18.64,7.96-28.77,10.1-31.88,11.1-.2.06-.4.1-.62.1-3.21.05-29.86.5-32.59,1.49-17.87,6.55-9.4,18.97-9.4,18.97Z"/>
        <path class="cls-23" d="m330.35,118.99s1.94-7.28,12.83-3.83c3.09.98-12.83,3.83-12.83,3.83Z"/>
        <path class="cls-22" d="m354.51,106.05c-.6,5.25-3.75,9.34-8.36,9.57-4.5.23-5.8-4.28-8.36-9.57-3.2-6.63,3.55-11.06,8.17-11.06s10.11-2.45,8.56,11.06Z"/>
        <path class="cls-8" d="m338.03,99.17l7.51,9.06,2.8-11.48c.06-1.25-1.22-2.12-2.36-1.61l-5.83,1.86-2.12,2.17Z"/>
        <circle class="cls-7" cx="329.46" cy="204.43" r="4.4"/>
      </g>
    </g>
  </g>
</svg>